<svg width="1126" height="532" viewBox="0 0 1126 532" fill="none" xmlns="http://www.w3.org/2000/svg">
<path d="M109.566 438.9H1117.57" stroke="black"/>
<path d="M277.567 454.86V438.9" stroke="black"/>
<path d="M216.043 483.923H211.143V496.523H209.343V483.923H204.443V482.323H216.043V483.923ZM221.707 487.623C220.827 487.637 220.047 487.863 219.367 488.303C218.7 488.73 218.227 489.323 217.947 490.083V496.523H216.187V486.083H217.827V488.503C218.187 487.783 218.66 487.203 219.247 486.763C219.847 486.31 220.474 486.057 221.127 486.003C221.26 486.003 221.374 486.003 221.467 486.003C221.56 486.003 221.64 486.01 221.707 486.023V487.623ZM222.633 493.503C222.633 492.837 222.819 492.263 223.193 491.783C223.579 491.29 224.106 490.91 224.773 490.643C225.439 490.377 226.213 490.243 227.093 490.243C227.559 490.243 228.053 490.283 228.573 490.363C229.093 490.43 229.553 490.537 229.953 490.683V489.923C229.953 489.123 229.713 488.497 229.233 488.043C228.753 487.577 228.073 487.343 227.193 487.343C226.619 487.343 226.066 487.45 225.533 487.663C225.013 487.863 224.459 488.157 223.873 488.543L223.233 487.303C223.913 486.837 224.593 486.49 225.273 486.263C225.953 486.023 226.659 485.903 227.393 485.903C228.726 485.903 229.779 486.277 230.553 487.023C231.326 487.757 231.713 488.783 231.713 490.103V494.523C231.713 494.737 231.753 494.897 231.833 495.003C231.926 495.097 232.073 495.15 232.273 495.163V496.523C232.099 496.55 231.946 496.57 231.813 496.583C231.693 496.597 231.593 496.603 231.513 496.603C231.099 496.603 230.786 496.49 230.573 496.263C230.373 496.037 230.259 495.797 230.233 495.543L230.193 494.883C229.739 495.47 229.146 495.923 228.413 496.243C227.679 496.563 226.953 496.723 226.233 496.723C225.539 496.723 224.919 496.583 224.373 496.303C223.826 496.01 223.399 495.623 223.093 495.143C222.786 494.65 222.633 494.103 222.633 493.503ZM229.433 494.243C229.593 494.057 229.719 493.87 229.813 493.683C229.906 493.483 229.953 493.317 229.953 493.183V491.883C229.539 491.723 229.106 491.603 228.653 491.523C228.199 491.43 227.753 491.383 227.313 491.383C226.419 491.383 225.693 491.563 225.133 491.923C224.586 492.27 224.313 492.75 224.313 493.363C224.313 493.697 224.399 494.023 224.573 494.343C224.759 494.65 225.026 494.903 225.373 495.103C225.733 495.303 226.173 495.403 226.693 495.403C227.239 495.403 227.759 495.297 228.253 495.083C228.746 494.857 229.139 494.577 229.433 494.243ZM233.847 491.323C233.847 490.337 234.047 489.437 234.447 488.623C234.86 487.797 235.42 487.137 236.127 486.643C236.847 486.15 237.667 485.903 238.587 485.903C239.427 485.903 240.18 486.123 240.847 486.563C241.514 487.003 242.034 487.537 242.407 488.163V481.923H244.167V494.523C244.167 494.737 244.207 494.897 244.287 495.003C244.38 495.097 244.527 495.15 244.727 495.163V496.523C244.394 496.577 244.134 496.603 243.947 496.603C243.6 496.603 243.294 496.483 243.027 496.243C242.774 496.003 242.647 495.737 242.647 495.443V494.563C242.234 495.23 241.68 495.757 240.987 496.143C240.294 496.53 239.574 496.723 238.827 496.723C238.107 496.723 237.44 496.583 236.827 496.303C236.227 496.01 235.7 495.61 235.247 495.103C234.807 494.597 234.46 494.023 234.207 493.383C233.967 492.73 233.847 492.043 233.847 491.323ZM242.407 492.863V489.863C242.247 489.41 241.987 489.003 241.627 488.643C241.267 488.27 240.86 487.977 240.407 487.763C239.967 487.537 239.527 487.423 239.087 487.423C238.567 487.423 238.094 487.537 237.667 487.763C237.254 487.977 236.894 488.27 236.587 488.643C236.294 489.003 236.067 489.417 235.907 489.883C235.747 490.35 235.667 490.837 235.667 491.343C235.667 491.863 235.754 492.357 235.927 492.823C236.114 493.29 236.367 493.703 236.687 494.063C237.02 494.423 237.4 494.703 237.827 494.903C238.267 495.103 238.74 495.203 239.247 495.203C239.567 495.203 239.894 495.143 240.227 495.023C240.574 494.903 240.9 494.737 241.207 494.523C241.514 494.31 241.774 494.063 241.987 493.783C242.2 493.49 242.34 493.183 242.407 492.863ZM247.105 496.523V486.083H248.865V496.523H247.105ZM247.105 484.123V481.923H248.865V484.123H247.105ZM257.114 496.003C256.968 496.07 256.768 496.157 256.514 496.263C256.261 496.37 255.968 496.463 255.634 496.543C255.301 496.623 254.948 496.663 254.574 496.663C254.148 496.663 253.754 496.59 253.394 496.443C253.034 496.283 252.748 496.043 252.534 495.723C252.321 495.39 252.214 494.977 252.214 494.483V487.463H250.794V486.083H252.214V482.603H253.974V486.083H256.314V487.463H253.974V493.943C254.001 494.317 254.128 494.597 254.354 494.783C254.581 494.957 254.848 495.043 255.154 495.043C255.501 495.043 255.821 494.983 256.114 494.863C256.408 494.743 256.601 494.657 256.694 494.603L257.114 496.003ZM258.746 496.523V486.083H260.506V496.523H258.746ZM258.746 484.123V481.923H260.506V484.123H258.746ZM267.915 496.723C267.128 496.723 266.415 496.583 265.775 496.303C265.135 496.01 264.582 495.617 264.115 495.123C263.648 494.617 263.288 494.037 263.035 493.383C262.782 492.73 262.655 492.043 262.655 491.323C262.655 490.59 262.782 489.897 263.035 489.243C263.288 488.59 263.648 488.017 264.115 487.523C264.582 487.017 265.135 486.623 265.775 486.343C266.428 486.05 267.142 485.903 267.915 485.903C268.702 485.903 269.415 486.05 270.055 486.343C270.695 486.623 271.248 487.017 271.715 487.523C272.195 488.017 272.562 488.59 272.815 489.243C273.068 489.897 273.195 490.59 273.195 491.323C273.195 492.043 273.068 492.73 272.815 493.383C272.562 494.037 272.202 494.617 271.735 495.123C271.268 495.617 270.708 496.01 270.055 496.303C269.415 496.583 268.702 496.723 267.915 496.723ZM264.455 491.343C264.455 492.063 264.608 492.717 264.915 493.303C265.235 493.89 265.655 494.357 266.175 494.703C266.695 495.037 267.275 495.203 267.915 495.203C268.555 495.203 269.135 495.03 269.655 494.683C270.188 494.337 270.608 493.87 270.915 493.283C271.235 492.683 271.395 492.023 271.395 491.303C271.395 490.583 271.235 489.93 270.915 489.343C270.608 488.757 270.188 488.29 269.655 487.943C269.135 487.597 268.555 487.423 267.915 487.423C267.275 487.423 266.695 487.603 266.175 487.963C265.655 488.31 265.235 488.777 264.915 489.363C264.608 489.95 264.455 490.61 264.455 491.343ZM284.388 496.523H282.628V490.683C282.628 489.577 282.454 488.77 282.108 488.263C281.774 487.743 281.261 487.483 280.568 487.483C280.088 487.483 279.608 487.603 279.128 487.843C278.661 488.083 278.241 488.41 277.868 488.823C277.508 489.223 277.248 489.69 277.088 490.223V496.523H275.328V486.083H276.928V488.323C277.208 487.83 277.568 487.403 278.008 487.043C278.448 486.683 278.948 486.403 279.508 486.203C280.068 486.003 280.654 485.903 281.268 485.903C281.868 485.903 282.368 486.017 282.768 486.243C283.181 486.457 283.501 486.763 283.728 487.163C283.968 487.55 284.134 488.01 284.228 488.543C284.334 489.077 284.388 489.657 284.388 490.283V496.523ZM286.305 493.503C286.305 492.837 286.491 492.263 286.865 491.783C287.251 491.29 287.778 490.91 288.445 490.643C289.111 490.377 289.885 490.243 290.765 490.243C291.231 490.243 291.725 490.283 292.245 490.363C292.765 490.43 293.225 490.537 293.625 490.683V489.923C293.625 489.123 293.385 488.497 292.905 488.043C292.425 487.577 291.745 487.343 290.865 487.343C290.291 487.343 289.738 487.45 289.205 487.663C288.685 487.863 288.131 488.157 287.545 488.543L286.905 487.303C287.585 486.837 288.265 486.49 288.945 486.263C289.625 486.023 290.331 485.903 291.065 485.903C292.398 485.903 293.451 486.277 294.225 487.023C294.998 487.757 295.385 488.783 295.385 490.103V494.523C295.385 494.737 295.425 494.897 295.505 495.003C295.598 495.097 295.745 495.15 295.945 495.163V496.523C295.771 496.55 295.618 496.57 295.485 496.583C295.365 496.597 295.265 496.603 295.185 496.603C294.771 496.603 294.458 496.49 294.245 496.263C294.045 496.037 293.931 495.797 293.905 495.543L293.865 494.883C293.411 495.47 292.818 495.923 292.085 496.243C291.351 496.563 290.625 496.723 289.905 496.723C289.211 496.723 288.591 496.583 288.045 496.303C287.498 496.01 287.071 495.623 286.765 495.143C286.458 494.65 286.305 494.103 286.305 493.503ZM293.105 494.243C293.265 494.057 293.391 493.87 293.485 493.683C293.578 493.483 293.625 493.317 293.625 493.183V491.883C293.211 491.723 292.778 491.603 292.325 491.523C291.871 491.43 291.425 491.383 290.985 491.383C290.091 491.383 289.365 491.563 288.805 491.923C288.258 492.27 287.985 492.75 287.985 493.363C287.985 493.697 288.071 494.023 288.245 494.343C288.431 494.65 288.698 494.903 289.045 495.103C289.405 495.303 289.845 495.403 290.365 495.403C290.911 495.403 291.431 495.297 291.925 495.083C292.418 494.857 292.811 494.577 293.105 494.243ZM298.239 481.923H299.999V493.823C299.999 494.397 300.079 494.75 300.239 494.883C300.399 495.017 300.592 495.083 300.819 495.083C301.099 495.083 301.366 495.057 301.619 495.003C301.872 494.937 302.086 494.87 302.259 494.803L302.539 496.243C302.246 496.363 301.899 496.463 301.499 496.543C301.099 496.623 300.746 496.663 300.439 496.663C299.759 496.663 299.219 496.47 298.819 496.083C298.432 495.697 298.239 495.157 298.239 494.463V481.923ZM307.555 493.503C307.555 492.837 307.741 492.263 308.115 491.783C308.501 491.29 309.028 490.91 309.695 490.643C310.361 490.377 311.135 490.243 312.015 490.243C312.481 490.243 312.975 490.283 313.495 490.363C314.015 490.43 314.475 490.537 314.875 490.683V489.923C314.875 489.123 314.635 488.497 314.155 488.043C313.675 487.577 312.995 487.343 312.115 487.343C311.541 487.343 310.988 487.45 310.455 487.663C309.935 487.863 309.381 488.157 308.795 488.543L308.155 487.303C308.835 486.837 309.515 486.49 310.195 486.263C310.875 486.023 311.581 485.903 312.315 485.903C313.648 485.903 314.701 486.277 315.475 487.023C316.248 487.757 316.635 488.783 316.635 490.103V494.523C316.635 494.737 316.675 494.897 316.755 495.003C316.848 495.097 316.995 495.15 317.195 495.163V496.523C317.021 496.55 316.868 496.57 316.735 496.583C316.615 496.597 316.515 496.603 316.435 496.603C316.021 496.603 315.708 496.49 315.495 496.263C315.295 496.037 315.181 495.797 315.155 495.543L315.115 494.883C314.661 495.47 314.068 495.923 313.335 496.243C312.601 496.563 311.875 496.723 311.155 496.723C310.461 496.723 309.841 496.583 309.295 496.303C308.748 496.01 308.321 495.623 308.015 495.143C307.708 494.65 307.555 494.103 307.555 493.503ZM314.355 494.243C314.515 494.057 314.641 493.87 314.735 493.683C314.828 493.483 314.875 493.317 314.875 493.183V491.883C314.461 491.723 314.028 491.603 313.575 491.523C313.121 491.43 312.675 491.383 312.235 491.383C311.341 491.383 310.615 491.563 310.055 491.923C309.508 492.27 309.235 492.75 309.235 493.363C309.235 493.697 309.321 494.023 309.495 494.343C309.681 494.65 309.948 494.903 310.295 495.103C310.655 495.303 311.095 495.403 311.615 495.403C312.161 495.403 312.681 495.297 313.175 495.083C313.668 494.857 314.061 494.577 314.355 494.243ZM325.069 496.723C324.216 496.723 323.456 496.51 322.789 496.083C322.122 495.657 321.596 495.117 321.209 494.463V500.783H319.449V486.083H321.009V488.043C321.422 487.403 321.962 486.89 322.629 486.503C323.296 486.103 324.022 485.903 324.809 485.903C325.529 485.903 326.189 486.05 326.789 486.343C327.389 486.637 327.909 487.037 328.349 487.543C328.789 488.05 329.129 488.63 329.369 489.283C329.622 489.923 329.749 490.597 329.749 491.303C329.749 492.29 329.549 493.197 329.149 494.023C328.762 494.85 328.216 495.51 327.509 496.003C326.802 496.483 325.989 496.723 325.069 496.723ZM324.529 495.203C325.049 495.203 325.516 495.097 325.929 494.883C326.356 494.657 326.716 494.363 327.009 494.003C327.316 493.63 327.549 493.21 327.709 492.743C327.869 492.277 327.949 491.797 327.949 491.303C327.949 490.783 327.856 490.29 327.669 489.823C327.496 489.357 327.242 488.943 326.909 488.583C326.589 488.223 326.209 487.943 325.769 487.743C325.342 487.53 324.876 487.423 324.369 487.423C324.049 487.423 323.716 487.483 323.369 487.603C323.036 487.723 322.716 487.897 322.409 488.123C322.102 488.337 321.842 488.583 321.629 488.863C321.416 489.143 321.276 489.443 321.209 489.763V492.743C321.409 493.197 321.676 493.61 322.009 493.983C322.342 494.357 322.729 494.657 323.169 494.883C323.609 495.097 324.062 495.203 324.529 495.203ZM337.53 496.723C336.676 496.723 335.916 496.51 335.25 496.083C334.583 495.657 334.056 495.117 333.67 494.463V500.783H331.91V486.083H333.47V488.043C333.883 487.403 334.423 486.89 335.09 486.503C335.756 486.103 336.483 485.903 337.27 485.903C337.99 485.903 338.65 486.05 339.25 486.343C339.85 486.637 340.37 487.037 340.81 487.543C341.25 488.05 341.59 488.63 341.83 489.283C342.083 489.923 342.21 490.597 342.21 491.303C342.21 492.29 342.01 493.197 341.61 494.023C341.223 494.85 340.676 495.51 339.97 496.003C339.263 496.483 338.45 496.723 337.53 496.723ZM336.99 495.203C337.51 495.203 337.976 495.097 338.39 494.883C338.816 494.657 339.176 494.363 339.47 494.003C339.776 493.63 340.01 493.21 340.17 492.743C340.33 492.277 340.41 491.797 340.41 491.303C340.41 490.783 340.316 490.29 340.13 489.823C339.956 489.357 339.703 488.943 339.37 488.583C339.05 488.223 338.67 487.943 338.23 487.743C337.803 487.53 337.336 487.423 336.83 487.423C336.51 487.423 336.176 487.483 335.83 487.603C335.496 487.723 335.176 487.897 334.87 488.123C334.563 488.337 334.303 488.583 334.09 488.863C333.876 489.143 333.736 489.443 333.67 489.763V492.743C333.87 493.197 334.136 493.61 334.47 493.983C334.803 494.357 335.19 494.657 335.63 494.883C336.07 495.097 336.523 495.203 336.99 495.203ZM347.951 496.723C347.084 496.723 346.271 496.583 345.511 496.303C344.751 496.01 344.097 495.577 343.551 495.003L344.231 493.763C344.831 494.323 345.431 494.723 346.031 494.963C346.631 495.203 347.244 495.323 347.871 495.323C348.591 495.323 349.177 495.19 349.631 494.923C350.084 494.643 350.311 494.237 350.311 493.703C350.311 493.317 350.191 493.03 349.951 492.843C349.724 492.657 349.397 492.503 348.971 492.383C348.544 492.25 348.037 492.103 347.451 491.943C346.731 491.73 346.124 491.503 345.631 491.263C345.137 491.023 344.764 490.723 344.511 490.363C344.257 490.003 344.131 489.55 344.131 489.003C344.131 488.337 344.304 487.777 344.651 487.323C344.997 486.857 345.471 486.503 346.071 486.263C346.684 486.023 347.377 485.903 348.151 485.903C348.924 485.903 349.624 486.023 350.251 486.263C350.877 486.503 351.417 486.857 351.871 487.323L351.071 488.543C350.657 488.117 350.204 487.803 349.711 487.603C349.217 487.39 348.664 487.283 348.051 487.283C347.691 487.283 347.337 487.33 346.991 487.423C346.644 487.503 346.357 487.657 346.131 487.883C345.904 488.097 345.791 488.403 345.791 488.803C345.791 489.137 345.877 489.403 346.051 489.603C346.237 489.79 346.504 489.95 346.851 490.083C347.211 490.217 347.644 490.363 348.151 490.523C348.937 490.75 349.617 490.977 350.191 491.203C350.777 491.43 351.231 491.723 351.551 492.083C351.871 492.443 352.031 492.943 352.031 493.583C352.031 494.57 351.657 495.343 350.911 495.903C350.164 496.45 349.177 496.723 347.951 496.723Z" fill="black"/>
<path d="M613.569 454.86V438.9" stroke="black"/>
<path d="M561.082 496.523V482.323H566.002C567.522 482.323 568.789 482.643 569.802 483.283C570.829 483.91 571.596 484.763 572.102 485.843C572.609 486.91 572.862 488.097 572.862 489.403C572.862 490.843 572.582 492.097 572.022 493.163C571.462 494.23 570.669 495.057 569.642 495.643C568.616 496.23 567.402 496.523 566.002 496.523H561.082ZM571.042 489.403C571.042 488.337 570.842 487.39 570.442 486.563C570.056 485.737 569.489 485.09 568.742 484.623C567.996 484.157 567.082 483.923 566.002 483.923H562.882V494.923H566.002C567.096 494.923 568.016 494.683 568.762 494.203C569.509 493.71 570.076 493.05 570.462 492.223C570.849 491.383 571.042 490.443 571.042 489.403ZM575.119 496.523V486.083H576.879V496.523H575.119ZM575.119 484.123V481.923H576.879V484.123H575.119ZM583.888 496.643C583.181 496.643 582.528 496.503 581.928 496.223C581.341 495.93 580.835 495.537 580.408 495.043C579.981 494.537 579.648 493.963 579.408 493.323C579.181 492.683 579.068 492.017 579.068 491.323C579.068 490.59 579.181 489.897 579.408 489.243C579.648 488.59 579.981 488.017 580.408 487.523C580.848 487.017 581.361 486.623 581.948 486.343C582.535 486.05 583.188 485.903 583.908 485.903C584.775 485.903 585.528 486.117 586.168 486.543C586.821 486.97 587.368 487.51 587.808 488.163V486.083H589.368V496.403C589.368 497.39 589.128 498.223 588.648 498.903C588.181 499.583 587.541 500.097 586.728 500.443C585.928 500.803 585.035 500.983 584.048 500.983C582.875 500.983 581.915 500.777 581.168 500.363C580.421 499.95 579.801 499.39 579.308 498.683L580.328 497.783C580.741 498.397 581.275 498.857 581.928 499.163C582.595 499.47 583.301 499.623 584.048 499.623C584.688 499.623 585.275 499.503 585.808 499.263C586.355 499.037 586.788 498.683 587.108 498.203C587.441 497.723 587.608 497.123 587.608 496.403V494.563C587.221 495.203 586.688 495.71 586.008 496.083C585.341 496.457 584.635 496.643 583.888 496.643ZM584.428 495.203C584.801 495.203 585.161 495.137 585.508 495.003C585.855 494.87 586.175 494.697 586.468 494.483C586.761 494.257 587.008 494.003 587.208 493.723C587.408 493.443 587.541 493.157 587.608 492.863V489.863C587.421 489.383 587.155 488.963 586.808 488.603C586.461 488.23 586.068 487.943 585.628 487.743C585.188 487.53 584.735 487.423 584.268 487.423C583.735 487.423 583.255 487.537 582.828 487.763C582.415 487.99 582.061 488.297 581.768 488.683C581.475 489.057 581.248 489.477 581.088 489.943C580.928 490.41 580.848 490.883 580.848 491.363C580.848 491.883 580.941 492.377 581.128 492.843C581.315 493.297 581.568 493.703 581.888 494.063C582.208 494.423 582.588 494.703 583.028 494.903C583.468 495.103 583.935 495.203 584.428 495.203ZM592.209 496.523V486.083H593.969V496.523H592.209ZM592.209 484.123V481.923H593.969V484.123H592.209ZM602.218 496.003C602.071 496.07 601.871 496.157 601.618 496.263C601.365 496.37 601.071 496.463 600.738 496.543C600.405 496.623 600.051 496.663 599.678 496.663C599.251 496.663 598.858 496.59 598.498 496.443C598.138 496.283 597.851 496.043 597.638 495.723C597.425 495.39 597.318 494.977 597.318 494.483V487.463H595.898V486.083H597.318V482.603H599.078V486.083H601.418V487.463H599.078V493.943C599.105 494.317 599.231 494.597 599.458 494.783C599.685 494.957 599.951 495.043 600.258 495.043C600.605 495.043 600.925 494.983 601.218 494.863C601.511 494.743 601.705 494.657 601.798 494.603L602.218 496.003ZM603.029 493.503C603.029 492.837 603.216 492.263 603.589 491.783C603.976 491.29 604.503 490.91 605.169 490.643C605.836 490.377 606.609 490.243 607.489 490.243C607.956 490.243 608.449 490.283 608.969 490.363C609.489 490.43 609.949 490.537 610.349 490.683V489.923C610.349 489.123 610.109 488.497 609.629 488.043C609.149 487.577 608.469 487.343 607.589 487.343C607.016 487.343 606.463 487.45 605.929 487.663C605.409 487.863 604.856 488.157 604.269 488.543L603.629 487.303C604.309 486.837 604.989 486.49 605.669 486.263C606.349 486.023 607.056 485.903 607.789 485.903C609.123 485.903 610.176 486.277 610.949 487.023C611.723 487.757 612.109 488.783 612.109 490.103V494.523C612.109 494.737 612.149 494.897 612.229 495.003C612.323 495.097 612.469 495.15 612.669 495.163V496.523C612.496 496.55 612.343 496.57 612.209 496.583C612.089 496.597 611.989 496.603 611.909 496.603C611.496 496.603 611.183 496.49 610.969 496.263C610.769 496.037 610.656 495.797 610.629 495.543L610.589 494.883C610.136 495.47 609.543 495.923 608.809 496.243C608.076 496.563 607.349 496.723 606.629 496.723C605.936 496.723 605.316 496.583 604.769 496.303C604.223 496.01 603.796 495.623 603.489 495.143C603.183 494.65 603.029 494.103 603.029 493.503ZM609.829 494.243C609.989 494.057 610.116 493.87 610.209 493.683C610.303 493.483 610.349 493.317 610.349 493.183V491.883C609.936 491.723 609.503 491.603 609.049 491.523C608.596 491.43 608.149 491.383 607.709 491.383C606.816 491.383 606.089 491.563 605.529 491.923C604.983 492.27 604.709 492.75 604.709 493.363C604.709 493.697 604.796 494.023 604.969 494.343C605.156 494.65 605.423 494.903 605.769 495.103C606.129 495.303 606.569 495.403 607.089 495.403C607.636 495.403 608.156 495.297 608.649 495.083C609.143 494.857 609.536 494.577 609.829 494.243ZM614.963 481.923H616.723V493.823C616.723 494.397 616.803 494.75 616.963 494.883C617.123 495.017 617.317 495.083 617.543 495.083C617.823 495.083 618.09 495.057 618.343 495.003C618.597 494.937 618.81 494.87 618.983 494.803L619.263 496.243C618.97 496.363 618.623 496.463 618.223 496.543C617.823 496.623 617.47 496.663 617.163 496.663C616.483 496.663 615.943 496.47 615.543 496.083C615.157 495.697 614.963 495.157 614.963 494.463V481.923ZM624.279 493.503C624.279 492.837 624.466 492.263 624.839 491.783C625.226 491.29 625.753 490.91 626.419 490.643C627.086 490.377 627.859 490.243 628.739 490.243C629.206 490.243 629.699 490.283 630.219 490.363C630.739 490.43 631.199 490.537 631.599 490.683V489.923C631.599 489.123 631.359 488.497 630.879 488.043C630.399 487.577 629.719 487.343 628.839 487.343C628.266 487.343 627.713 487.45 627.179 487.663C626.659 487.863 626.106 488.157 625.519 488.543L624.879 487.303C625.559 486.837 626.239 486.49 626.919 486.263C627.599 486.023 628.306 485.903 629.039 485.903C630.373 485.903 631.426 486.277 632.199 487.023C632.973 487.757 633.359 488.783 633.359 490.103V494.523C633.359 494.737 633.399 494.897 633.479 495.003C633.573 495.097 633.719 495.15 633.919 495.163V496.523C633.746 496.55 633.593 496.57 633.459 496.583C633.339 496.597 633.239 496.603 633.159 496.603C632.746 496.603 632.433 496.49 632.219 496.263C632.019 496.037 631.906 495.797 631.879 495.543L631.839 494.883C631.386 495.47 630.793 495.923 630.059 496.243C629.326 496.563 628.599 496.723 627.879 496.723C627.186 496.723 626.566 496.583 626.019 496.303C625.473 496.01 625.046 495.623 624.739 495.143C624.433 494.65 624.279 494.103 624.279 493.503ZM631.079 494.243C631.239 494.057 631.366 493.87 631.459 493.683C631.553 493.483 631.599 493.317 631.599 493.183V491.883C631.186 491.723 630.753 491.603 630.299 491.523C629.846 491.43 629.399 491.383 628.959 491.383C628.066 491.383 627.339 491.563 626.779 491.923C626.233 492.27 625.959 492.75 625.959 493.363C625.959 493.697 626.046 494.023 626.219 494.343C626.406 494.65 626.673 494.903 627.019 495.103C627.379 495.303 627.819 495.403 628.339 495.403C628.886 495.403 629.406 495.297 629.899 495.083C630.393 494.857 630.786 494.577 631.079 494.243ZM641.793 496.723C640.94 496.723 640.18 496.51 639.513 496.083C638.847 495.657 638.32 495.117 637.933 494.463V500.783H636.173V486.083H637.733V488.043C638.147 487.403 638.687 486.89 639.353 486.503C640.02 486.103 640.747 485.903 641.533 485.903C642.253 485.903 642.913 486.05 643.513 486.343C644.113 486.637 644.633 487.037 645.073 487.543C645.513 488.05 645.853 488.63 646.093 489.283C646.347 489.923 646.473 490.597 646.473 491.303C646.473 492.29 646.273 493.197 645.873 494.023C645.487 494.85 644.94 495.51 644.233 496.003C643.527 496.483 642.713 496.723 641.793 496.723ZM641.253 495.203C641.773 495.203 642.24 495.097 642.653 494.883C643.08 494.657 643.44 494.363 643.733 494.003C644.04 493.63 644.273 493.21 644.433 492.743C644.593 492.277 644.673 491.797 644.673 491.303C644.673 490.783 644.58 490.29 644.393 489.823C644.22 489.357 643.967 488.943 643.633 488.583C643.313 488.223 642.933 487.943 642.493 487.743C642.067 487.53 641.6 487.423 641.093 487.423C640.773 487.423 640.44 487.483 640.093 487.603C639.76 487.723 639.44 487.897 639.133 488.123C638.827 488.337 638.567 488.583 638.353 488.863C638.14 489.143 638 489.443 637.933 489.763V492.743C638.133 493.197 638.4 493.61 638.733 493.983C639.067 494.357 639.453 494.657 639.893 494.883C640.333 495.097 640.787 495.203 641.253 495.203ZM654.254 496.723C653.401 496.723 652.641 496.51 651.974 496.083C651.308 495.657 650.781 495.117 650.394 494.463V500.783H648.634V486.083H650.194V488.043C650.608 487.403 651.148 486.89 651.814 486.503C652.481 486.103 653.208 485.903 653.994 485.903C654.714 485.903 655.374 486.05 655.974 486.343C656.574 486.637 657.094 487.037 657.534 487.543C657.974 488.05 658.314 488.63 658.554 489.283C658.808 489.923 658.934 490.597 658.934 491.303C658.934 492.29 658.734 493.197 658.334 494.023C657.948 494.85 657.401 495.51 656.694 496.003C655.988 496.483 655.174 496.723 654.254 496.723ZM653.714 495.203C654.234 495.203 654.701 495.097 655.114 494.883C655.541 494.657 655.901 494.363 656.194 494.003C656.501 493.63 656.734 493.21 656.894 492.743C657.054 492.277 657.134 491.797 657.134 491.303C657.134 490.783 657.041 490.29 656.854 489.823C656.681 489.357 656.428 488.943 656.094 488.583C655.774 488.223 655.394 487.943 654.954 487.743C654.528 487.53 654.061 487.423 653.554 487.423C653.234 487.423 652.901 487.483 652.554 487.603C652.221 487.723 651.901 487.897 651.594 488.123C651.288 488.337 651.028 488.583 650.814 488.863C650.601 489.143 650.461 489.443 650.394 489.763V492.743C650.594 493.197 650.861 493.61 651.194 493.983C651.528 494.357 651.914 494.657 652.354 494.883C652.794 495.097 653.248 495.203 653.714 495.203ZM664.675 496.723C663.809 496.723 662.995 496.583 662.235 496.303C661.475 496.01 660.822 495.577 660.275 495.003L660.955 493.763C661.555 494.323 662.155 494.723 662.755 494.963C663.355 495.203 663.969 495.323 664.595 495.323C665.315 495.323 665.902 495.19 666.355 494.923C666.809 494.643 667.035 494.237 667.035 493.703C667.035 493.317 666.915 493.03 666.675 492.843C666.449 492.657 666.122 492.503 665.695 492.383C665.269 492.25 664.762 492.103 664.175 491.943C663.455 491.73 662.849 491.503 662.355 491.263C661.862 491.023 661.489 490.723 661.235 490.363C660.982 490.003 660.855 489.55 660.855 489.003C660.855 488.337 661.029 487.777 661.375 487.323C661.722 486.857 662.195 486.503 662.795 486.263C663.409 486.023 664.102 485.903 664.875 485.903C665.649 485.903 666.349 486.023 666.975 486.263C667.602 486.503 668.142 486.857 668.595 487.323L667.795 488.543C667.382 488.117 666.929 487.803 666.435 487.603C665.942 487.39 665.389 487.283 664.775 487.283C664.415 487.283 664.062 487.33 663.715 487.423C663.369 487.503 663.082 487.657 662.855 487.883C662.629 488.097 662.515 488.403 662.515 488.803C662.515 489.137 662.602 489.403 662.775 489.603C662.962 489.79 663.229 489.95 663.575 490.083C663.935 490.217 664.369 490.363 664.875 490.523C665.662 490.75 666.342 490.977 666.915 491.203C667.502 491.43 667.955 491.723 668.275 492.083C668.595 492.443 668.755 492.943 668.755 493.583C668.755 494.57 668.382 495.343 667.635 495.903C666.889 496.45 665.902 496.723 664.675 496.723Z" fill="black"/>
<path d="M949.571 454.86V438.9" stroke="black"/>
<path d="M893.297 482.455V497H891.095V484.656H891.01L887.529 486.929V484.827L891.159 482.455H893.297ZM902.295 497.241C901.173 497.237 900.214 496.941 899.419 496.354C898.623 495.767 898.015 494.912 897.593 493.79C897.172 492.668 896.961 491.316 896.961 489.734C896.961 488.158 897.172 486.811 897.593 485.693C898.02 484.576 898.63 483.723 899.426 483.136C900.226 482.549 901.182 482.256 902.295 482.256C903.408 482.256 904.362 482.552 905.157 483.143C905.953 483.731 906.561 484.583 906.983 485.7C907.409 486.813 907.622 488.158 907.622 489.734C907.622 491.321 907.411 492.675 906.99 493.797C906.568 494.914 905.96 495.769 905.164 496.361C904.369 496.948 903.413 497.241 902.295 497.241ZM902.295 495.345C903.28 495.345 904.049 494.865 904.603 493.903C905.162 492.942 905.441 491.553 905.441 489.734C905.441 488.527 905.314 487.507 905.058 486.673C904.807 485.835 904.445 485.201 903.971 484.77C903.502 484.334 902.944 484.116 902.295 484.116C901.315 484.116 900.546 484.599 899.987 485.565C899.428 486.531 899.146 487.921 899.142 489.734C899.142 490.946 899.267 491.972 899.518 492.81C899.774 493.643 900.136 494.275 900.605 494.706C901.074 495.132 901.637 495.345 902.295 495.345ZM916.597 488.804V490.651H910.148V488.804H916.597ZM924.918 482.455V497H922.716V484.656H922.631L919.151 486.929V484.827L922.78 482.455H924.918ZM933.916 497.241C932.794 497.237 931.835 496.941 931.04 496.354C930.244 495.767 929.636 494.912 929.214 493.79C928.793 492.668 928.582 491.316 928.582 489.734C928.582 488.158 928.793 486.811 929.214 485.693C929.641 484.576 930.251 483.723 931.047 483.136C931.847 482.549 932.804 482.256 933.916 482.256C935.029 482.256 935.983 482.552 936.778 483.143C937.574 483.731 938.182 484.583 938.604 485.7C939.03 486.813 939.243 488.158 939.243 489.734C939.243 491.321 939.032 492.675 938.611 493.797C938.189 494.914 937.581 495.769 936.786 496.361C935.99 496.948 935.034 497.241 933.916 497.241ZM933.916 495.345C934.901 495.345 935.67 494.865 936.224 493.903C936.783 492.942 937.062 491.553 937.062 489.734C937.062 488.527 936.935 487.507 936.679 486.673C936.428 485.835 936.066 485.201 935.592 484.77C935.124 484.334 934.565 484.116 933.916 484.116C932.936 484.116 932.167 484.599 931.608 485.565C931.049 486.531 930.768 487.921 930.763 489.734C930.763 490.946 930.888 491.972 931.139 492.81C931.395 493.643 931.757 494.275 932.226 494.706C932.695 495.132 933.258 495.345 933.916 495.345ZM948.218 488.804V490.651H941.77V488.804H948.218ZM956.084 497.241C954.962 497.237 954.003 496.941 953.208 496.354C952.412 495.767 951.804 494.912 951.382 493.79C950.961 492.668 950.75 491.316 950.75 489.734C950.75 488.158 950.961 486.811 951.382 485.693C951.809 484.576 952.419 483.723 953.215 483.136C954.015 482.549 954.971 482.256 956.084 482.256C957.197 482.256 958.151 482.552 958.946 483.143C959.742 483.731 960.35 484.583 960.772 485.7C961.198 486.813 961.411 488.158 961.411 489.734C961.411 491.321 961.2 492.675 960.779 493.797C960.357 494.914 959.749 495.769 958.953 496.361C958.158 496.948 957.202 497.241 956.084 497.241ZM956.084 495.345C957.069 495.345 957.838 494.865 958.392 493.903C958.951 492.942 959.23 491.553 959.23 489.734C959.23 488.527 959.103 487.507 958.847 486.673C958.596 485.835 958.234 485.201 957.76 484.77C957.292 484.334 956.733 484.116 956.084 484.116C955.104 484.116 954.335 484.599 953.776 485.565C953.217 486.531 952.935 487.921 952.931 489.734C952.931 490.946 953.056 491.972 953.307 492.81C953.563 493.643 953.925 494.275 954.394 494.706C954.863 495.132 955.426 495.345 956.084 495.345ZM972.426 497.241C971.735 497.241 971.11 497.114 970.551 496.858C969.993 496.598 969.55 496.221 969.223 495.729C968.901 495.236 968.74 494.633 968.74 493.918C968.74 493.302 968.859 492.795 969.096 492.398C969.332 492 969.652 491.685 970.054 491.453C970.457 491.221 970.907 491.046 971.404 490.928C971.901 490.809 972.408 490.719 972.924 490.658C973.577 490.582 974.107 490.52 974.515 490.473C974.922 490.421 975.218 490.338 975.402 490.224C975.587 490.111 975.679 489.926 975.679 489.67V489.621C975.679 489 975.504 488.52 975.154 488.179C974.808 487.838 974.292 487.668 973.605 487.668C972.891 487.668 972.327 487.826 971.915 488.143C971.508 488.456 971.226 488.804 971.07 489.188L969.074 488.733C969.311 488.07 969.657 487.535 970.111 487.128C970.57 486.716 971.098 486.418 971.695 486.233C972.292 486.044 972.919 485.949 973.577 485.949C974.013 485.949 974.474 486.001 974.962 486.105C975.454 486.205 975.914 486.389 976.34 486.659C976.771 486.929 977.123 487.315 977.398 487.817C977.673 488.314 977.81 488.96 977.81 489.756V497H975.736V495.509H975.651C975.514 495.783 975.308 496.053 975.033 496.318C974.758 496.583 974.406 496.804 973.975 496.979C973.544 497.154 973.028 497.241 972.426 497.241ZM972.888 495.537C973.475 495.537 973.977 495.421 974.394 495.189C974.815 494.957 975.135 494.654 975.353 494.28C975.575 493.901 975.686 493.496 975.686 493.065V491.659C975.611 491.735 975.464 491.806 975.246 491.872C975.033 491.934 974.789 491.988 974.515 492.036C974.24 492.078 973.972 492.118 973.712 492.156C973.452 492.189 973.234 492.218 973.059 492.241C972.647 492.294 972.27 492.381 971.929 492.504C971.593 492.627 971.323 492.805 971.12 493.037C970.921 493.264 970.821 493.567 970.821 493.946C970.821 494.472 971.016 494.869 971.404 495.139C971.792 495.404 972.287 495.537 972.888 495.537ZM980.638 501.091V486.091H982.712V487.859H982.89C983.013 487.632 983.191 487.369 983.423 487.071C983.655 486.773 983.977 486.512 984.388 486.29C984.8 486.062 985.345 485.949 986.022 485.949C986.903 485.949 987.689 486.171 988.38 486.616C989.071 487.062 989.613 487.703 990.006 488.541C990.404 489.379 990.603 490.388 990.603 491.567C990.603 492.746 990.406 493.757 990.013 494.599C989.621 495.437 989.081 496.084 988.394 496.538C987.708 496.988 986.924 497.213 986.043 497.213C985.38 497.213 984.838 497.102 984.417 496.879C984 496.657 983.674 496.396 983.437 496.098C983.2 495.8 983.018 495.535 982.89 495.303H982.762V501.091H980.638ZM982.719 491.545C982.719 492.312 982.831 492.985 983.053 493.562C983.276 494.14 983.598 494.592 984.019 494.919C984.441 495.241 984.957 495.402 985.567 495.402C986.202 495.402 986.732 495.234 987.158 494.898C987.585 494.557 987.906 494.095 988.124 493.513C988.347 492.93 988.458 492.275 988.458 491.545C988.458 490.826 988.349 490.179 988.131 489.607C987.918 489.034 987.596 488.581 987.165 488.25C986.739 487.919 986.207 487.753 985.567 487.753C984.952 487.753 984.431 487.911 984.005 488.229C983.584 488.546 983.264 488.989 983.046 489.557C982.828 490.125 982.719 490.788 982.719 491.545ZM992.982 501.091V486.091H995.056V487.859H995.234C995.357 487.632 995.534 487.369 995.766 487.071C995.998 486.773 996.32 486.512 996.732 486.29C997.144 486.062 997.689 485.949 998.366 485.949C999.246 485.949 1000.03 486.171 1000.72 486.616C1001.42 487.062 1001.96 487.703 1002.35 488.541C1002.75 489.379 1002.95 490.388 1002.95 491.567C1002.95 492.746 1002.75 493.757 1002.36 494.599C1001.96 495.437 1001.42 496.084 1000.74 496.538C1000.05 496.988 999.268 497.213 998.387 497.213C997.724 497.213 997.182 497.102 996.761 496.879C996.344 496.657 996.017 496.396 995.781 496.098C995.544 495.8 995.362 495.535 995.234 495.303H995.106V501.091H992.982ZM995.063 491.545C995.063 492.312 995.174 492.985 995.397 493.562C995.62 494.14 995.942 494.592 996.363 494.919C996.784 495.241 997.3 495.402 997.911 495.402C998.546 495.402 999.076 495.234 999.502 494.898C999.928 494.557 1000.25 494.095 1000.47 493.513C1000.69 492.93 1000.8 492.275 1000.8 491.545C1000.8 490.826 1000.69 490.179 1000.48 489.607C1000.26 489.034 999.94 488.581 999.509 488.25C999.083 487.919 998.55 487.753 997.911 487.753C997.296 487.753 996.775 487.911 996.349 488.229C995.927 488.546 995.608 488.989 995.39 489.557C995.172 490.125 995.063 490.788 995.063 491.545ZM1013.5 488.754L1011.58 489.095C1011.5 488.849 1011.37 488.615 1011.19 488.392C1011.02 488.17 1010.79 487.987 1010.5 487.845C1010.2 487.703 1009.84 487.632 1009.4 487.632C1008.79 487.632 1008.29 487.767 1007.89 488.037C1007.49 488.302 1007.29 488.645 1007.29 489.067C1007.29 489.431 1007.42 489.725 1007.69 489.947C1007.96 490.17 1008.4 490.352 1009 490.494L1010.73 490.892C1011.73 491.124 1012.48 491.482 1012.98 491.964C1013.47 492.447 1013.71 493.075 1013.71 493.847C1013.71 494.5 1013.52 495.082 1013.15 495.594C1012.77 496.1 1012.25 496.498 1011.58 496.787C1010.91 497.076 1010.13 497.22 1009.25 497.22C1008.03 497.22 1007.04 496.96 1006.26 496.439C1005.49 495.913 1005.02 495.168 1004.84 494.202L1006.9 493.889C1007.02 494.424 1007.29 494.829 1007.68 495.104C1008.08 495.374 1008.6 495.509 1009.24 495.509C1009.94 495.509 1010.49 495.364 1010.91 495.075C1011.33 494.782 1011.53 494.424 1011.53 494.003C1011.53 493.662 1011.41 493.375 1011.15 493.143C1010.9 492.911 1010.51 492.736 1009.99 492.618L1008.15 492.213C1007.13 491.981 1006.37 491.612 1005.89 491.105C1005.4 490.598 1005.16 489.957 1005.16 489.18C1005.16 488.536 1005.34 487.973 1005.7 487.49C1006.06 487.007 1006.56 486.631 1007.19 486.361C1007.83 486.086 1008.56 485.949 1009.37 485.949C1010.55 485.949 1011.48 486.205 1012.16 486.716C1012.84 487.223 1013.28 487.902 1013.5 488.754Z" fill="black"/>
<path d="M109.566 13.3V438.9" stroke="black"/>
<path d="M37.9128 46.68V48.6H26.3448V31.56H37.6968V33.48H28.5048V39H36.4968V40.8H28.5048V46.68H37.9128ZM41.0245 48.6V37.728H39.3205V36.072H41.0245V35.976C41.0245 35.24 41.1845 34.552 41.5045 33.912C41.8405 33.272 42.3125 32.752 42.9205 32.352C43.5285 31.952 44.2485 31.752 45.0805 31.752C45.6885 31.752 46.2085 31.824 46.6405 31.968C47.0885 32.096 47.5205 32.264 47.9365 32.472L47.3605 34.104C47.0085 33.88 46.6885 33.736 46.4005 33.672C46.1125 33.608 45.8085 33.576 45.4885 33.576C45.1045 33.576 44.7605 33.648 44.4565 33.792C44.1685 33.92 43.9205 34.096 43.7125 34.32C43.5205 34.544 43.3765 34.8 43.2805 35.088C43.1845 35.36 43.1365 35.632 43.1365 35.904V36.072H46.4725V37.728H43.1365V48.6H41.0245ZM46.7845 48.6V37.728H45.0805V36.072H46.7845V35.808C46.7845 34.784 46.9365 33.904 47.2405 33.168C47.5605 32.416 48.0085 31.84 48.5845 31.44C49.1605 31.04 49.8405 30.84 50.6245 30.84C51.1205 30.84 51.6085 30.912 52.0885 31.056C52.5685 31.184 53.0005 31.368 53.3845 31.608L52.8565 33.168C52.6325 33.008 52.3525 32.88 52.0165 32.784C51.6965 32.688 51.3765 32.64 51.0565 32.64C50.3685 32.64 49.8325 32.912 49.4485 33.456C49.0805 33.984 48.8965 34.744 48.8965 35.736V36.072H52.2325V37.728H48.8965V48.6H46.7845ZM59.9339 48.84C58.9899 48.84 58.1339 48.672 57.3659 48.336C56.5979 47.984 55.9339 47.512 55.3739 46.92C54.8139 46.312 54.3819 45.616 54.0779 44.832C53.7739 44.048 53.6219 43.224 53.6219 42.36C53.6219 41.48 53.7739 40.648 54.0779 39.864C54.3819 39.08 54.8139 38.392 55.3739 37.8C55.9339 37.192 56.5979 36.72 57.3659 36.384C58.1499 36.032 59.0059 35.856 59.9339 35.856C60.8779 35.856 61.7339 36.032 62.5019 36.384C63.2699 36.72 63.9339 37.192 64.4939 37.8C65.0699 38.392 65.5099 39.08 65.8139 39.864C66.1179 40.648 66.2699 41.48 66.2699 42.36C66.2699 43.224 66.1179 44.048 65.8139 44.832C65.5099 45.616 65.0779 46.312 64.5179 46.92C63.9579 47.512 63.2859 47.984 62.5019 48.336C61.7339 48.672 60.8779 48.84 59.9339 48.84ZM55.7819 42.384C55.7819 43.248 55.9659 44.032 56.3339 44.736C56.7179 45.44 57.2219 46 57.8459 46.416C58.4699 46.816 59.1659 47.016 59.9339 47.016C60.7019 47.016 61.3979 46.808 62.0219 46.392C62.6619 45.976 63.1659 45.416 63.5339 44.712C63.9179 43.992 64.1099 43.2 64.1099 42.336C64.1099 41.472 63.9179 40.688 63.5339 39.984C63.1659 39.28 62.6619 38.72 62.0219 38.304C61.3979 37.888 60.7019 37.68 59.9339 37.68C59.1659 37.68 58.4699 37.896 57.8459 38.328C57.2219 38.744 56.7179 39.304 56.3339 40.008C55.9659 40.712 55.7819 41.504 55.7819 42.384ZM75.4531 37.92C74.3971 37.936 73.4611 38.208 72.6451 38.736C71.8451 39.248 71.2771 39.96 70.9411 40.872V48.6H68.8291V36.072H70.7971V38.976C71.2291 38.112 71.7971 37.416 72.5011 36.888C73.2211 36.344 73.9731 36.04 74.7571 35.976C74.9171 35.976 75.0531 35.976 75.1651 35.976C75.2771 35.976 75.3731 35.984 75.4531 36V37.92ZM84.0278 47.976C83.8518 48.056 83.6118 48.16 83.3078 48.288C83.0038 48.416 82.6518 48.528 82.2518 48.624C81.8518 48.72 81.4278 48.768 80.9798 48.768C80.4678 48.768 79.9958 48.68 79.5638 48.504C79.1318 48.312 78.7878 48.024 78.5318 47.64C78.2758 47.24 78.1478 46.744 78.1478 46.152V37.728H76.4438V36.072H78.1478V31.896H80.2598V36.072H83.0678V37.728H80.2598V45.504C80.2918 45.952 80.4438 46.288 80.7158 46.512C80.9878 46.72 81.3078 46.824 81.6758 46.824C82.0918 46.824 82.4758 46.752 82.8278 46.608C83.1798 46.464 83.4118 46.36 83.5238 46.296L84.0278 47.976Z" fill="black"/>
<path d="M146 27H412V439H146V27Z" fill="url(#paint0_linear_308_193)"/>
<path d="M251.01 375V357.96H253.698V375H251.01ZM268.469 375H265.829V367.968C265.829 366.8 265.637 365.944 265.253 365.4C264.885 364.856 264.333 364.584 263.597 364.584C263.085 364.584 262.573 364.712 262.061 364.968C261.565 365.224 261.117 365.576 260.717 366.024C260.317 366.456 260.029 366.96 259.853 367.536V375H257.213V362.448H259.613V364.968C259.933 364.408 260.349 363.928 260.861 363.528C261.389 363.112 261.981 362.792 262.637 362.568C263.293 362.344 263.989 362.232 264.725 362.232C265.477 362.232 266.093 362.368 266.573 362.64C267.069 362.912 267.453 363.288 267.725 363.768C268.013 364.232 268.205 364.776 268.301 365.4C268.413 366.008 268.469 366.656 268.469 367.344V375ZM272.159 375V364.8H270.479V362.76H272.159V362.256C272.159 361.232 272.319 360.344 272.639 359.592C272.975 358.84 273.439 358.264 274.031 357.864C274.639 357.448 275.351 357.24 276.167 357.24C276.679 357.24 277.183 357.312 277.679 357.456C278.175 357.584 278.647 357.768 279.095 358.008L278.519 359.976C278.279 359.816 277.991 359.696 277.655 359.616C277.335 359.52 277.023 359.472 276.719 359.472C276.111 359.472 275.639 359.704 275.303 360.168C274.967 360.632 274.799 361.304 274.799 362.184V362.76H278.015V364.8H274.799V375H272.159ZM287.05 364.728C286.026 364.744 285.114 364.976 284.314 365.424C283.53 365.872 282.97 366.504 282.634 367.32V375H279.994V362.448H282.442V365.256C282.874 364.392 283.442 363.704 284.146 363.192C284.85 362.664 285.594 362.376 286.378 362.328C286.538 362.328 286.666 362.328 286.762 362.328C286.874 362.328 286.97 362.336 287.05 362.352V364.728ZM288.035 371.328C288.035 370.528 288.259 369.832 288.707 369.24C289.171 368.632 289.803 368.168 290.603 367.848C291.403 367.512 292.331 367.344 293.387 367.344C293.947 367.344 294.515 367.384 295.091 367.464C295.683 367.544 296.203 367.672 296.651 367.848V367.056C296.651 366.176 296.387 365.488 295.859 364.992C295.331 364.496 294.571 364.248 293.579 364.248C292.875 364.248 292.211 364.376 291.587 364.632C290.963 364.872 290.299 365.216 289.595 365.664L288.707 363.888C289.539 363.328 290.371 362.912 291.203 362.64C292.051 362.368 292.939 362.232 293.867 362.232C295.547 362.232 296.867 362.68 297.827 363.576C298.803 364.456 299.291 365.712 299.291 367.344V372.024C299.291 372.328 299.339 372.544 299.435 372.672C299.547 372.8 299.731 372.872 299.987 372.888V375C299.747 375.048 299.531 375.08 299.339 375.096C299.147 375.112 298.987 375.12 298.859 375.12C298.299 375.12 297.875 374.984 297.587 374.712C297.299 374.44 297.131 374.12 297.083 373.752L297.011 373.032C296.467 373.736 295.771 374.28 294.923 374.664C294.075 375.048 293.219 375.24 292.355 375.24C291.523 375.24 290.779 375.072 290.123 374.736C289.467 374.384 288.955 373.912 288.587 373.32C288.219 372.728 288.035 372.064 288.035 371.328ZM296.027 372.096C296.219 371.888 296.371 371.68 296.483 371.472C296.595 371.264 296.651 371.08 296.651 370.92V369.48C296.203 369.304 295.731 369.176 295.235 369.096C294.739 369 294.251 368.952 293.771 368.952C292.811 368.952 292.027 369.144 291.419 369.528C290.827 369.912 290.531 370.44 290.531 371.112C290.531 371.48 290.627 371.832 290.819 372.168C291.027 372.504 291.315 372.776 291.683 372.984C292.067 373.192 292.539 373.296 293.099 373.296C293.675 373.296 294.227 373.184 294.755 372.96C295.283 372.736 295.707 372.448 296.027 372.096Z" fill="white"/>
<path d="M262.305 99.12C261.073 99.12 259.961 98.88 258.969 98.4C257.977 97.92 257.121 97.272 256.401 96.456C255.681 95.624 255.121 94.696 254.721 93.672C254.337 92.632 254.145 91.568 254.145 90.48C254.145 89.344 254.353 88.264 254.769 87.24C255.185 86.2 255.761 85.28 256.497 84.48C257.233 83.664 258.097 83.024 259.089 82.56C260.097 82.08 261.185 81.84 262.353 81.84C263.569 81.84 264.673 82.088 265.665 82.584C266.673 83.08 267.529 83.744 268.233 84.576C268.953 85.408 269.505 86.336 269.889 87.36C270.289 88.384 270.489 89.432 270.489 90.504C270.489 91.64 270.281 92.728 269.865 93.768C269.465 94.792 268.897 95.712 268.161 96.528C267.425 97.328 266.553 97.96 265.545 98.424C264.553 98.888 263.473 99.12 262.305 99.12ZM256.881 90.48C256.881 91.28 257.009 92.056 257.265 92.808C257.521 93.56 257.881 94.232 258.345 94.824C258.825 95.4 259.401 95.856 260.073 96.192C260.745 96.528 261.497 96.696 262.329 96.696C263.193 96.696 263.961 96.52 264.633 96.168C265.305 95.816 265.865 95.344 266.313 94.752C266.777 94.144 267.129 93.472 267.369 92.736C267.609 91.984 267.729 91.232 267.729 90.48C267.729 89.68 267.601 88.912 267.345 88.176C267.105 87.424 266.745 86.76 266.265 86.184C265.785 85.592 265.209 85.128 264.537 84.792C263.881 84.456 263.145 84.288 262.329 84.288C261.465 84.288 260.697 84.464 260.025 84.816C259.353 85.168 258.785 85.64 258.321 86.232C257.857 86.824 257.497 87.488 257.241 88.224C257.001 88.96 256.881 89.712 256.881 90.48ZM273.272 99V81.96H280.424C281.192 81.96 281.896 82.12 282.536 82.44C283.176 82.76 283.736 83.184 284.216 83.712C284.696 84.24 285.064 84.832 285.32 85.488C285.576 86.144 285.704 86.816 285.704 87.504C285.704 88.448 285.488 89.352 285.056 90.216C284.64 91.064 284.04 91.752 283.256 92.28C282.488 92.808 281.592 93.072 280.568 93.072H275.96V99H273.272ZM275.96 90.696H280.4C280.912 90.696 281.36 90.56 281.744 90.288C282.128 90 282.424 89.616 282.632 89.136C282.856 88.656 282.968 88.112 282.968 87.504C282.968 86.88 282.84 86.328 282.584 85.848C282.328 85.368 281.992 85 281.576 84.744C281.176 84.472 280.736 84.336 280.256 84.336H275.96V90.696ZM292.259 99.24C291.203 99.24 290.203 99.072 289.259 98.736C288.315 98.384 287.507 97.864 286.835 97.176L287.819 95.4C288.539 96.04 289.259 96.504 289.979 96.792C290.715 97.08 291.443 97.224 292.163 97.224C292.899 97.224 293.499 97.088 293.963 96.816C294.427 96.528 294.659 96.112 294.659 95.568C294.659 95.168 294.539 94.872 294.299 94.68C294.059 94.488 293.707 94.32 293.243 94.176C292.795 94.032 292.251 93.872 291.611 93.696C290.715 93.424 289.963 93.144 289.355 92.856C288.747 92.552 288.291 92.184 287.987 91.752C287.683 91.32 287.531 90.768 287.531 90.096C287.531 89.28 287.739 88.584 288.155 88.008C288.571 87.432 289.147 86.992 289.883 86.688C290.635 86.384 291.499 86.232 292.475 86.232C293.387 86.232 294.227 86.376 294.995 86.664C295.779 86.936 296.467 87.368 297.059 87.96L295.931 89.712C295.371 89.2 294.795 88.824 294.203 88.584C293.627 88.344 293.003 88.224 292.331 88.224C291.947 88.224 291.579 88.272 291.227 88.368C290.875 88.448 290.579 88.608 290.339 88.848C290.115 89.072 290.003 89.392 290.003 89.808C290.003 90.144 290.099 90.416 290.291 90.624C290.483 90.832 290.771 91.008 291.155 91.152C291.539 91.296 292.011 91.456 292.571 91.632C293.547 91.92 294.379 92.208 295.067 92.496C295.755 92.768 296.283 93.128 296.651 93.576C297.035 94.008 297.227 94.608 297.227 95.376C297.227 96.592 296.771 97.544 295.859 98.232C294.963 98.904 293.763 99.24 292.259 99.24Z" fill="white"/>
<path d="M479 150H747V439H479V150Z" fill="url(#paint1_linear_308_193)"/>
<path d="M600.203 370.608C600.203 371.52 599.963 372.304 599.483 372.96C599.019 373.616 598.387 374.12 597.587 374.472C596.787 374.824 595.907 375 594.947 375H586.811V357.96H595.595C596.395 357.96 597.083 358.176 597.659 358.608C598.251 359.024 598.699 359.568 599.003 360.24C599.323 360.896 599.483 361.584 599.483 362.304C599.483 363.136 599.267 363.92 598.835 364.656C598.419 365.376 597.819 365.912 597.035 366.264C598.011 366.552 598.779 367.08 599.339 367.848C599.915 368.6 600.203 369.52 600.203 370.608ZM597.443 370.104C597.443 369.624 597.339 369.192 597.131 368.808C596.939 368.408 596.667 368.088 596.315 367.848C595.979 367.592 595.579 367.464 595.115 367.464H589.499V372.672H594.947C595.427 372.672 595.851 372.56 596.219 372.336C596.603 372.096 596.899 371.784 597.107 371.4C597.331 371 597.443 370.568 597.443 370.104ZM589.499 360.288V365.304H594.443C594.891 365.304 595.291 365.2 595.643 364.992C595.995 364.768 596.275 364.472 596.483 364.104C596.691 363.72 596.795 363.288 596.795 362.808C596.795 362.312 596.699 361.88 596.507 361.512C596.315 361.128 596.051 360.832 595.715 360.624C595.395 360.4 595.019 360.288 594.587 360.288H589.499ZM602.527 370.128V362.448H605.167V369.6C605.167 370.72 605.367 371.568 605.767 372.144C606.183 372.704 606.783 372.984 607.567 372.984C608.063 372.984 608.543 372.88 609.007 372.672C609.487 372.464 609.919 372.16 610.303 371.76C610.703 371.344 611.023 370.848 611.263 370.272V362.448H613.903V372.024C613.903 372.328 613.959 372.544 614.071 372.672C614.183 372.8 614.367 372.872 614.622 372.888V375C614.351 375.048 614.127 375.08 613.951 375.096C613.775 375.112 613.607 375.12 613.447 375.12C612.967 375.12 612.567 374.992 612.247 374.736C611.927 374.464 611.743 374.12 611.695 373.704L611.647 372.456C611.087 373.368 610.359 374.064 609.463 374.544C608.567 375.008 607.583 375.24 606.511 375.24C605.199 375.24 604.207 374.808 603.535 373.944C602.863 373.08 602.527 371.808 602.527 370.128ZM617.271 375V362.448H619.912V375H617.271ZM617.271 360.384V357.48H619.912V360.384H617.271ZM623.108 357.48H625.748V371.376C625.748 372.016 625.844 372.424 626.036 372.6C626.228 372.776 626.468 372.864 626.756 372.864C627.076 372.864 627.372 372.832 627.644 372.768C627.932 372.704 628.18 372.624 628.388 372.528L628.772 374.616C628.388 374.776 627.932 374.912 627.404 375.024C626.876 375.136 626.404 375.192 625.988 375.192C625.092 375.192 624.388 374.944 623.876 374.448C623.364 373.936 623.108 373.232 623.108 372.336V357.48ZM629.511 368.736C629.511 367.536 629.751 366.448 630.231 365.472C630.727 364.48 631.399 363.696 632.247 363.12C633.095 362.528 634.071 362.232 635.175 362.232C636.135 362.232 636.999 362.48 637.767 362.976C638.551 363.472 639.159 364.088 639.591 364.824V357.48H642.231V372.024C642.231 372.328 642.287 372.544 642.399 372.672C642.511 372.8 642.695 372.872 642.951 372.888V375C642.455 375.08 642.071 375.12 641.799 375.12C641.303 375.12 640.879 374.976 640.527 374.688C640.191 374.4 640.015 374.056 639.999 373.656L639.975 372.72C639.495 373.52 638.847 374.144 638.031 374.592C637.215 375.024 636.367 375.24 635.487 375.24C634.623 375.24 633.823 375.072 633.087 374.736C632.367 374.4 631.735 373.928 631.191 373.32C630.663 372.712 630.247 372.016 629.943 371.232C629.655 370.448 629.511 369.616 629.511 368.736ZM639.591 370.488V367.2C639.415 366.688 639.127 366.232 638.727 365.832C638.343 365.416 637.903 365.088 637.407 364.848C636.927 364.608 636.447 364.488 635.967 364.488C635.407 364.488 634.895 364.608 634.431 364.848C633.983 365.088 633.591 365.408 633.255 365.808C632.935 366.208 632.687 366.664 632.511 367.176C632.335 367.688 632.247 368.224 632.247 368.784C632.247 369.36 632.343 369.904 632.535 370.416C632.727 370.912 632.999 371.36 633.351 371.76C633.719 372.144 634.135 372.448 634.599 372.672C635.079 372.88 635.599 372.984 636.159 372.984C636.511 372.984 636.863 372.92 637.215 372.792C637.583 372.664 637.927 372.488 638.247 372.264C638.583 372.04 638.863 371.776 639.087 371.472C639.327 371.168 639.495 370.84 639.591 370.488Z" fill="white"/>
<path d="M600.305 234.12C599.073 234.12 597.961 233.88 596.969 233.4C595.977 232.92 595.121 232.272 594.401 231.456C593.681 230.624 593.121 229.696 592.721 228.672C592.337 227.632 592.145 226.568 592.145 225.48C592.145 224.344 592.353 223.264 592.769 222.24C593.185 221.2 593.761 220.28 594.497 219.48C595.233 218.664 596.097 218.024 597.089 217.56C598.097 217.08 599.185 216.84 600.353 216.84C601.569 216.84 602.673 217.088 603.665 217.584C604.673 218.08 605.529 218.744 606.233 219.576C606.953 220.408 607.505 221.336 607.889 222.36C608.289 223.384 608.489 224.432 608.489 225.504C608.489 226.64 608.281 227.728 607.865 228.768C607.465 229.792 606.897 230.712 606.161 231.528C605.425 232.328 604.553 232.96 603.545 233.424C602.553 233.888 601.473 234.12 600.305 234.12ZM594.881 225.48C594.881 226.28 595.009 227.056 595.265 227.808C595.521 228.56 595.881 229.232 596.345 229.824C596.825 230.4 597.401 230.856 598.073 231.192C598.745 231.528 599.497 231.696 600.329 231.696C601.193 231.696 601.961 231.52 602.633 231.168C603.305 230.816 603.865 230.344 604.313 229.752C604.777 229.144 605.129 228.472 605.369 227.736C605.609 226.984 605.729 226.232 605.729 225.48C605.729 224.68 605.601 223.912 605.345 223.176C605.105 222.424 604.745 221.76 604.265 221.184C603.785 220.592 603.209 220.128 602.537 219.792C601.881 219.456 601.145 219.288 600.329 219.288C599.465 219.288 598.697 219.464 598.025 219.816C597.353 220.168 596.785 220.64 596.321 221.232C595.857 221.824 595.497 222.488 595.241 223.224C595.001 223.96 594.881 224.712 594.881 225.48ZM611.272 234V216.96H618.424C619.192 216.96 619.896 217.12 620.536 217.44C621.176 217.76 621.736 218.184 622.216 218.712C622.696 219.24 623.064 219.832 623.32 220.488C623.576 221.144 623.704 221.816 623.704 222.504C623.704 223.448 623.488 224.352 623.056 225.216C622.64 226.064 622.04 226.752 621.256 227.28C620.488 227.808 619.592 228.072 618.568 228.072H613.96V234H611.272ZM613.96 225.696H618.4C618.912 225.696 619.36 225.56 619.744 225.288C620.128 225 620.424 224.616 620.632 224.136C620.856 223.656 620.968 223.112 620.968 222.504C620.968 221.88 620.84 221.328 620.584 220.848C620.328 220.368 619.992 220 619.576 219.744C619.176 219.472 618.736 219.336 618.256 219.336H613.96V225.696ZM630.259 234.24C629.203 234.24 628.203 234.072 627.259 233.736C626.315 233.384 625.507 232.864 624.835 232.176L625.819 230.4C626.539 231.04 627.259 231.504 627.979 231.792C628.715 232.08 629.443 232.224 630.163 232.224C630.899 232.224 631.499 232.088 631.963 231.816C632.427 231.528 632.659 231.112 632.659 230.568C632.659 230.168 632.539 229.872 632.299 229.68C632.059 229.488 631.707 229.32 631.243 229.176C630.795 229.032 630.251 228.872 629.611 228.696C628.715 228.424 627.963 228.144 627.355 227.856C626.747 227.552 626.291 227.184 625.987 226.752C625.683 226.32 625.531 225.768 625.531 225.096C625.531 224.28 625.739 223.584 626.155 223.008C626.571 222.432 627.147 221.992 627.883 221.688C628.635 221.384 629.499 221.232 630.475 221.232C631.387 221.232 632.227 221.376 632.995 221.664C633.779 221.936 634.467 222.368 635.059 222.96L633.931 224.712C633.371 224.2 632.795 223.824 632.203 223.584C631.627 223.344 631.003 223.224 630.331 223.224C629.947 223.224 629.579 223.272 629.227 223.368C628.875 223.448 628.579 223.608 628.339 223.848C628.115 224.072 628.003 224.392 628.003 224.808C628.003 225.144 628.099 225.416 628.291 225.624C628.483 225.832 628.771 226.008 629.155 226.152C629.539 226.296 630.011 226.456 630.571 226.632C631.547 226.92 632.379 227.208 633.067 227.496C633.755 227.768 634.283 228.128 634.651 228.576C635.035 229.008 635.227 229.608 635.227 230.376C635.227 231.592 634.771 232.544 633.859 233.232C632.963 233.904 631.763 234.24 630.259 234.24Z" fill="white"/>
<path d="M815.17 307H1083.18V438.9H815.17V307Z" fill="#226ED8"/>
<path d="M933.203 370.608C933.203 371.52 932.963 372.304 932.483 372.96C932.019 373.616 931.387 374.12 930.587 374.472C929.787 374.824 928.907 375 927.947 375H919.811V357.96H928.595C929.395 357.96 930.083 358.176 930.659 358.608C931.251 359.024 931.699 359.568 932.003 360.24C932.323 360.896 932.483 361.584 932.483 362.304C932.483 363.136 932.267 363.92 931.835 364.656C931.419 365.376 930.819 365.912 930.035 366.264C931.011 366.552 931.779 367.08 932.339 367.848C932.915 368.6 933.203 369.52 933.203 370.608ZM930.443 370.104C930.443 369.624 930.339 369.192 930.131 368.808C929.939 368.408 929.667 368.088 929.315 367.848C928.979 367.592 928.579 367.464 928.115 367.464H922.499V372.672H927.947C928.427 372.672 928.851 372.56 929.219 372.336C929.603 372.096 929.899 371.784 930.107 371.4C930.331 371 930.443 370.568 930.443 370.104ZM922.499 360.288V365.304H927.443C927.891 365.304 928.291 365.2 928.643 364.992C928.995 364.768 929.275 364.472 929.483 364.104C929.691 363.72 929.795 363.288 929.795 362.808C929.795 362.312 929.699 361.88 929.507 361.512C929.315 361.128 929.051 360.832 928.715 360.624C928.395 360.4 928.019 360.288 927.587 360.288H922.499ZM935.527 370.128V362.448H938.167V369.6C938.167 370.72 938.367 371.568 938.767 372.144C939.183 372.704 939.783 372.984 940.567 372.984C941.063 372.984 941.543 372.88 942.007 372.672C942.487 372.464 942.919 372.16 943.303 371.76C943.703 371.344 944.023 370.848 944.263 370.272V362.448H946.903V372.024C946.903 372.328 946.959 372.544 947.071 372.672C947.183 372.8 947.367 372.872 947.622 372.888V375C947.351 375.048 947.127 375.08 946.951 375.096C946.775 375.112 946.607 375.12 946.447 375.12C945.967 375.12 945.567 374.992 945.247 374.736C944.927 374.464 944.743 374.12 944.695 373.704L944.647 372.456C944.087 373.368 943.359 374.064 942.463 374.544C941.567 375.008 940.583 375.24 939.511 375.24C938.199 375.24 937.207 374.808 936.535 373.944C935.863 373.08 935.527 371.808 935.527 370.128ZM950.271 375V362.448H952.912V375H950.271ZM950.271 360.384V357.48H952.912V360.384H950.271ZM956.108 357.48H958.748V371.376C958.748 372.016 958.844 372.424 959.036 372.6C959.228 372.776 959.468 372.864 959.756 372.864C960.076 372.864 960.372 372.832 960.644 372.768C960.932 372.704 961.18 372.624 961.388 372.528L961.772 374.616C961.388 374.776 960.932 374.912 960.404 375.024C959.876 375.136 959.404 375.192 958.988 375.192C958.092 375.192 957.388 374.944 956.876 374.448C956.364 373.936 956.108 373.232 956.108 372.336V357.48ZM962.511 368.736C962.511 367.536 962.751 366.448 963.231 365.472C963.727 364.48 964.399 363.696 965.247 363.12C966.095 362.528 967.071 362.232 968.175 362.232C969.135 362.232 969.999 362.48 970.767 362.976C971.551 363.472 972.159 364.088 972.591 364.824V357.48H975.231V372.024C975.231 372.328 975.287 372.544 975.399 372.672C975.511 372.8 975.695 372.872 975.951 372.888V375C975.455 375.08 975.071 375.12 974.799 375.12C974.303 375.12 973.879 374.976 973.527 374.688C973.191 374.4 973.015 374.056 972.999 373.656L972.975 372.72C972.495 373.52 971.847 374.144 971.031 374.592C970.215 375.024 969.367 375.24 968.487 375.24C967.623 375.24 966.823 375.072 966.087 374.736C965.367 374.4 964.735 373.928 964.191 373.32C963.663 372.712 963.247 372.016 962.943 371.232C962.655 370.448 962.511 369.616 962.511 368.736ZM972.591 370.488V367.2C972.415 366.688 972.127 366.232 971.727 365.832C971.343 365.416 970.903 365.088 970.407 364.848C969.927 364.608 969.447 364.488 968.967 364.488C968.407 364.488 967.895 364.608 967.431 364.848C966.983 365.088 966.591 365.408 966.255 365.808C965.935 366.208 965.687 366.664 965.511 367.176C965.335 367.688 965.247 368.224 965.247 368.784C965.247 369.36 965.343 369.904 965.535 370.416C965.727 370.912 965.999 371.36 966.351 371.76C966.719 372.144 967.135 372.448 967.599 372.672C968.079 372.88 968.599 372.984 969.159 372.984C969.511 372.984 969.863 372.92 970.215 372.792C970.583 372.664 970.927 372.488 971.247 372.264C971.583 372.04 971.863 371.776 972.087 371.472C972.327 371.168 972.495 370.84 972.591 370.488Z" fill="white"/>
<path d="M263.757 229.608C263.757 230.52 263.517 231.304 263.037 231.96C262.573 232.616 261.941 233.12 261.141 233.472C260.341 233.824 259.461 234 258.501 234H250.365V216.96H259.149C259.949 216.96 260.637 217.176 261.213 217.608C261.805 218.024 262.253 218.568 262.557 219.24C262.877 219.896 263.037 220.584 263.037 221.304C263.037 222.136 262.821 222.92 262.389 223.656C261.973 224.376 261.373 224.912 260.589 225.264C261.565 225.552 262.333 226.08 262.893 226.848C263.469 227.6 263.757 228.52 263.757 229.608ZM260.997 229.104C260.997 228.624 260.893 228.192 260.685 227.808C260.493 227.408 260.221 227.088 259.869 226.848C259.533 226.592 259.133 226.464 258.669 226.464H253.053V231.672H258.501C258.981 231.672 259.405 231.56 259.773 231.336C260.157 231.096 260.453 230.784 260.661 230.4C260.885 230 260.997 229.568 260.997 229.104ZM253.053 219.288V224.304H257.997C258.445 224.304 258.845 224.2 259.197 223.992C259.549 223.768 259.829 223.472 260.037 223.104C260.245 222.72 260.349 222.288 260.349 221.808C260.349 221.312 260.253 220.88 260.061 220.512C259.869 220.128 259.605 219.832 259.269 219.624C258.949 219.4 258.573 219.288 258.141 219.288H253.053ZM266.081 229.128V221.448H268.721V228.6C268.721 229.72 268.921 230.568 269.321 231.144C269.737 231.704 270.337 231.984 271.121 231.984C271.617 231.984 272.097 231.88 272.561 231.672C273.041 231.464 273.473 231.16 273.857 230.76C274.257 230.344 274.577 229.848 274.817 229.272V221.448H277.457V231.024C277.457 231.328 277.513 231.544 277.625 231.672C277.737 231.8 277.921 231.872 278.177 231.888V234C277.905 234.048 277.681 234.08 277.505 234.096C277.329 234.112 277.161 234.12 277.001 234.12C276.521 234.12 276.121 233.992 275.801 233.736C275.481 233.464 275.297 233.12 275.249 232.704L275.201 231.456C274.641 232.368 273.913 233.064 273.017 233.544C272.121 234.008 271.137 234.24 270.065 234.24C268.753 234.24 267.761 233.808 267.089 232.944C266.417 232.08 266.081 230.808 266.081 229.128ZM280.826 234V221.448H283.466V234H280.826ZM280.826 219.384V216.48H283.466V219.384H280.826ZM286.663 216.48H289.303V230.376C289.303 231.016 289.399 231.424 289.591 231.6C289.783 231.776 290.023 231.864 290.311 231.864C290.631 231.864 290.927 231.832 291.199 231.768C291.487 231.704 291.735 231.624 291.943 231.528L292.327 233.616C291.943 233.776 291.487 233.912 290.959 234.024C290.431 234.136 289.959 234.192 289.543 234.192C288.647 234.192 287.943 233.944 287.431 233.448C286.919 232.936 286.663 232.232 286.663 231.336V216.48ZM293.065 227.736C293.065 226.536 293.305 225.448 293.785 224.472C294.281 223.48 294.953 222.696 295.801 222.12C296.649 221.528 297.625 221.232 298.729 221.232C299.689 221.232 300.553 221.48 301.321 221.976C302.105 222.472 302.713 223.088 303.145 223.824V216.48H305.785V231.024C305.785 231.328 305.841 231.544 305.953 231.672C306.065 231.8 306.249 231.872 306.505 231.888V234C306.009 234.08 305.625 234.12 305.353 234.12C304.857 234.12 304.433 233.976 304.081 233.688C303.745 233.4 303.569 233.056 303.553 232.656L303.529 231.72C303.049 232.52 302.401 233.144 301.585 233.592C300.769 234.024 299.921 234.24 299.041 234.24C298.177 234.24 297.377 234.072 296.641 233.736C295.921 233.4 295.289 232.928 294.745 232.32C294.217 231.712 293.801 231.016 293.497 230.232C293.209 229.448 293.065 228.616 293.065 227.736ZM303.145 229.488V226.2C302.969 225.688 302.681 225.232 302.281 224.832C301.897 224.416 301.457 224.088 300.961 223.848C300.481 223.608 300.001 223.488 299.521 223.488C298.961 223.488 298.449 223.608 297.985 223.848C297.537 224.088 297.145 224.408 296.809 224.808C296.489 225.208 296.241 225.664 296.065 226.176C295.889 226.688 295.801 227.224 295.801 227.784C295.801 228.36 295.897 228.904 296.089 229.416C296.281 229.912 296.553 230.36 296.905 230.76C297.273 231.144 297.689 231.448 298.153 231.672C298.633 231.88 299.153 231.984 299.713 231.984C300.065 231.984 300.417 231.92 300.769 231.792C301.137 231.664 301.481 231.488 301.801 231.264C302.137 231.04 302.417 230.776 302.641 230.472C302.881 230.168 303.049 229.84 303.145 229.488Z" fill="white"/>
<rect x="146" y="309" width="266" height="2" fill="#ADCBF4"/>
<rect x="146" y="150" width="266" height="2" fill="#DBEAFE"/>
<rect x="481" y="307" width="266" height="2" fill="#ADCBF4"/>
<path d="M1071 279L1083 284.417L1071 290" stroke="#F198BD" stroke-width="3"/>
<path d="M146 13H414L480 122.215H748L816 284.5H1083" stroke="#F198BD" stroke-width="3"/>
<defs>
<linearGradient id="paint0_linear_308_193" x1="279" y1="27" x2="279" y2="439" gradientUnits="userSpaceOnUse">
<stop stop-color="#226ED8" stop-opacity="0.32"/>
<stop offset="0.463542" stop-color="#226ED8" stop-opacity="0.7"/>
<stop offset="1" stop-color="#226ED8"/>
</linearGradient>
<linearGradient id="paint1_linear_308_193" x1="613" y1="150" x2="613" y2="439" gradientUnits="userSpaceOnUse">
<stop offset="0.0677083" stop-color="#226ED8" stop-opacity="0.35"/>
<stop offset="0.53125" stop-color="#226ED8" stop-opacity="0.84"/>
<stop offset="1" stop-color="#226ED8"/>
</linearGradient>
</defs>
</svg>
